<svg width="20" height="20" viewBox="0 0 20 20" fill="none" xmlns="http://www.w3.org/2000/svg">
    <path d="M13 0.5H7C3.41015 0.5 0.5 3.41015 0.5 7V13C0.5 16.5899 3.41015 19.5 7 19.5H13C16.5899 19.5 19.5 16.5899 19.5 13V7C19.5 3.41015 16.5899 0.5 13 0.5Z" fill="#1463FA" stroke="#1463FA"></path>
    <path d="M7.91292 13.6538L7.90994 13.6507L4.78994 10.5307C4.36303 10.1038 4.36303 9.40534 4.78994 8.97842C5.21681 8.55156 5.91518 8.55151 6.3421 8.97829C6.34205 8.97825 6.34215 8.97833 6.3421 8.97829L8.56192 11.2101L8.67977 11.3286L8.79794 11.2104L13.67 6.33842C14.0969 5.91151 14.7953 5.91151 15.2222 6.33842C15.6492 6.76534 15.6492 7.46381 15.2222 7.89072L9.46224 13.6507C9.25385 13.8591 8.97239 13.9739 8.68009 13.9739C8.38697 13.9739 8.10758 13.8587 7.91292 13.6538Z" fill="white"></path>
    <path d="M6.3421 8.97829C5.91518 8.55151 5.21681 8.55156 4.78994 8.97842C4.36303 9.40534 4.36303 10.1038 4.78994 10.5307L7.90994 13.6507L7.91292 13.6538C8.10758 13.8587 8.38697 13.9739 8.68009 13.9739C8.97239 13.9739 9.25385 13.8591 9.46224 13.6507L15.2222 7.89072C15.6492 7.46381 15.6492 6.76534 15.2222 6.33842C14.7953 5.91151 14.0969 5.91151 13.67 6.33842L8.79794 11.2104L8.67977 11.3286L8.56192 11.2101L6.3421 8.97829ZM6.3421 8.97829C6.34215 8.97833 6.34205 8.97825 6.3421 8.97829Z" stroke="#1463FA" stroke-width="0.333333"></path>
</svg>
