<svg
  width="24"
  height="24"
  viewBox="0 0 24 24"
  fill="none"
  xmlns="http://www.w3.org/2000/svg"
>
  <rect width="24" height="24" rx="7" fill="#1463FA"></rect>
  <path
    d="M6.28577 12L4.8572 13.4286C3.27924 15.0065 3.27925 17.5649 4.8572 19.1429V19.1429V19.1429C6.43516 20.7208 8.99353 20.7208 10.5715 19.1429V19.1429L13.4286 16.2857V16.2857C15.0066 14.7078 15.0066 12.1494 13.4286 10.5714V10.5714"
    stroke="white"
    stroke-width="2"
    stroke-linecap="round"
  ></path>
  <path
    d="M17.7143 12L19.1429 10.5714C20.7208 8.99348 20.7208 6.43511 19.1429 4.85715V4.85715V4.85715C17.5649 3.2792 15.0065 3.2792 13.4286 4.85715V4.85715L10.5714 7.71429V7.71429C8.99348 9.29225 8.99348 11.8506 10.5714 13.4286V13.4286"
    stroke="white"
    stroke-width="2"
    stroke-linecap="round"
  ></path>
</svg>
